<svg width="277" height="138" viewBox="0 0 277 138" fill="none" xmlns="http://www.w3.org/2000/svg">
<path d="M39.5022 22.7023C41.8681 22.4067 39.9038 18.6419 39.271 17.5033C37.6101 14.515 34.5616 14.098 31.7579 12.8242C28.7339 11.4503 22.3529 17.9732 20.7773 20.1606C13.2054 30.6723 8.3128 42.5888 5.17325 55.0516C0.19005 74.8331 -0.959088 103.532 17.1942 117.671C23.1027 122.273 33.0526 119.535 38.4619 115.649C47.5475 109.122 54.6447 97.9065 61.6946 89.365C66.5169 83.5224 73.4665 72.8473 82.1533 72.6127C86.3786 72.4985 92.2002 77.8221 92.556 81.9709C92.9514 86.582 94.2074 85.8062 91.8625 81.9709C89.4793 78.0728 80.8004 74.2227 76.3162 74.75C68.4365 75.6766 64.5875 82.9725 63.6596 90.2893C62.4385 99.9175 69.3496 137.527 83.2514 118.768C90.8786 108.476 97.035 97.7084 103.999 86.9388C106.467 83.1216 108.414 79.0143 110.819 75.1544C111.277 74.4176 113.499 69.332 110.703 71.1107C98.0926 79.1319 90.4818 98.8175 94.8677 113.165C98.9664 126.573 125.435 95.0232 128.445 91.7912C133.07 86.8266 140.654 77.7341 148.153 76.9452C150.343 76.7147 151.846 78.2772 152.892 79.949C153.122 80.3176 154.5 84.6379 154.741 84.3971C157.433 81.7066 149.826 73.1289 147.575 72.2083C137.268 67.9939 131.041 80.7116 127.925 87.9786C124.445 96.0964 120.347 108.656 127.925 115.822C135.278 122.774 147.507 106.258 150.349 101.438C155.905 92.0143 165.259 79.0606 165.259 67.5292C165.259 58.3303 154.929 77.3195 154.279 78.967C148.816 92.7985 146.221 107.214 141.449 121.252C141.041 122.451 134.651 141.619 133.704 134.365C133.192 130.434 134.33 125.702 135.323 121.945C137.51 113.668 139.623 104.858 143.529 97.2213C148.286 87.9213 157.331 70.3605 169.478 69.551C178.238 68.9674 176.317 81.5818 175.258 87.2276C172.903 99.781 169.429 111.841 159.596 120.79C150.443 129.119 145.508 117.059 144.801 108.428C143.871 97.0904 148.437 82.097 159.711 76.9452C181.74 66.8795 163.916 112.483 176.009 115.013C186.873 117.286 197.91 94.407 200.629 87.632C201.284 85.9976 205.359 66.5345 201.553 72.1505C197.365 78.3309 194.794 86.0845 193.058 93.2931C192.068 97.4024 187.631 115.129 195.023 115.129C202.578 115.129 213.236 99.8513 216.695 94.4484C220.199 88.9754 223.877 81.5982 223.63 74.9233C223.428 69.477 217.589 83.314 217.446 85.6679C217.131 90.8624 214.682 102.95 219.007 107.273C225.226 113.49 235.442 94.7196 237.616 91.4446C238.122 90.6825 254.108 65.6773 251.082 64.4676C248.298 63.3547 240.938 84.3856 240.506 85.899C239.166 90.585 237.195 95.1316 236.113 99.8785C235.396 103.026 235.665 106.959 234.033 109.814C231.074 114.99 236.211 101.336 236.576 100.11C239.027 91.8668 239.924 83.3018 248.019 78.4471C253.051 75.429 258.348 84.7809 262.698 85.899C270.492 87.9023 271.617 61.5558 262.525 75.9054C257.011 84.6076 252.054 96.263 251.717 106.695C251.423 115.826 258.082 109.131 261.6 105.309C267.593 98.7971 274.538 88.3777 274.95 79.3136C275.944 57.466 261.971 31.9384 243.511 20.1606C224.179 7.82637 201.018 2.98464 178.321 2.13739C146.238 0.939816 110.057 7.62136 80.6507 20.2183C67.0194 26.0577 53.303 33.1877 41.3516 41.9964C32.3117 48.6591 21.1318 57.7048 18.5812 69.2622C16.2388 79.876 27.7561 87.2154 35.8034 91.4446C50.6278 99.2353 68.5664 100.394 84.9273 101.496C136.704 104.983 183.238 90.0845 231.201 72.4394C242.782 68.1787 254.711 63.5044 266.801 60.886C274.865 59.1397 271.52 61.977 267.322 65.3341" stroke="#2A2B2C" stroke-width="3" stroke-linecap="round"/>
</svg>
