<svg width="327" height="137" viewBox="0 0 327 137" fill="none" xmlns="http://www.w3.org/2000/svg">
<path d="M37.184 17.1387C36.3288 17.2451 33.5777 22.8336 33.1691 23.9722C31.1303 29.6522 27.7602 35.0679 25.3504 40.5827C22.144 47.9206 15.5165 53.9663 12.1431 61.3985C10.3756 65.2928 9.02592 67.8643 5.90934 70.9653C5.24474 71.6266 2 75.081 2 72.4371C2 67.6611 2.86009 62.5937 3.90184 57.9292C5.39358 51.2499 10.0518 58.0385 10.5583 61.1882C11.2688 65.6068 10.6484 73.8702 16.7393 74.8026C23.5928 75.8517 31.3525 66.6151 35.8105 62.7652C42.15 57.2905 44.5376 47.7273 49.0177 40.793C53.8128 33.3713 55.2515 27.1708 55.2515 18.5054C55.2515 7.16965 45.1228 2 34.8067 2C30.9584 2 28.0434 4.21024 26.2485 7.78215C23.4334 13.3841 18.7964 18.1995 16.7921 24.1824C14.6291 30.639 14.7931 38.0141 17.0034 44.3674C19.1326 50.4877 27.3463 56.7746 33.803 58.0343C44.04 60.0316 49.0661 59.548 57.576 52.6201C59.7279 50.8683 62.2737 50.7905 64.6551 52.5676C66.137 53.6734 61.3646 49.8009 59.5835 50.3073C53.5593 52.0199 51.3462 65.7167 53.561 70.1243C56.6523 76.276 64.7607 63.1235 64.7607 59.9267C64.7607 55.3186 61.0552 57.8382 63.0702 58.56C66.8315 59.9073 70.0063 57.811 72.7379 55.5112C74.1408 54.3301 75.5868 53.026 77.334 52.3573C79.7916 51.4168 77.913 50.8287 76.7529 51.7265C74.3428 53.5917 73.7795 59.4425 72.8436 62.0293C71.9035 64.6276 70.3774 66.9778 69.5153 69.5986C68.7717 71.8595 64.9942 84.4997 68.7757 76.2218C71.6702 69.8858 73.775 62.434 78.8132 57.6138C83.003 53.6053 85.1018 56.9918 83.0395 61.6087C82.545 62.7159 81.1713 68.0551 82.0886 68.9678C82.815 69.6906 88.3113 65.4011 89.0092 64.9203C93.3874 61.9044 97.6321 56.4156 102.692 54.6176C103.834 54.2119 103.995 55.6518 103.537 55.1958C103.032 54.6936 102.85 53.3107 102.269 53.1458C96.9271 51.6271 94.5527 61.2523 93.4997 64.6575C92.8424 66.783 93.7045 69.1781 96.1411 69.1781C98.0318 69.1781 100.709 64.7662 101.847 63.5011C103.373 61.8032 103.249 58.3603 102.058 56.6676C101.214 55.4687 109.686 52.4061 110.828 52.1996C115.723 51.3139 111.356 62.335 111.356 63.9742C111.356 66.2487 110.795 69.0335 113.733 66.7601C116.934 64.2826 121.562 61.2513 123.718 58.0343C124.242 57.2518 126.618 51.1419 124.88 53.3035C123.911 54.5085 123.805 58.1519 123.718 59.7164C123.392 65.5505 122.2 68.7958 127.997 63.028C129.957 61.0778 132.692 56.9014 135.129 55.9317C138.061 54.7647 136.765 52.6224 134.231 56.4048C132.615 58.8163 128.4 69.3296 134.389 67.496C139.332 65.9828 147.432 62.4845 150.555 57.8241C152.446 55.0019 154.09 54.9398 151.506 52.8829C150.305 51.9269 146.19 52.6561 145.642 54.565C144.986 56.8485 141.358 64.1071 144.163 66.3396C149.364 70.4802 154.072 65.5184 157 60.6626" stroke="#383A3A" stroke-width="3" stroke-linecap="round"/>
<path d="M200.679 54.622C200.679 45.4041 189.04 52.6397 186.987 57.051C184.627 62.1234 188.081 64.8499 192.622 63.6515C196.897 62.5234 198.238 58.6487 200.205 55.0973C202.161 51.5666 199.294 52.3647 197.836 54.8332C196.447 57.1822 195.872 60.5786 194.992 63.1763C193.568 67.3807 191.296 70.8638 189.515 74.8988C183.631 88.2276 182.066 103.133 175.823 116.403C173.084 122.225 169.409 131.187 163.185 133.934C160.905 134.939 158.113 136.229 157.55 132.561C155.656 120.218 158.861 104.217 163.975 92.9577C165.759 89.0273 169.682 86.4701 173.612 85.0371C176.881 83.8452 180.398 84.8138 183.617 83.5586C189.089 81.425 193.165 77.3103 197.888 74.0539C201.842 71.3285 206.764 65.7287 208.684 61.3281C209.433 59.6116 209.72 57.6941 210.632 56.0477C211.645 54.2189 211.185 56.0796 210.632 56.523C208.762 58.0234 207.937 63.8309 206.367 66.0805C203.152 70.686 202.706 77.1707 200.205 82.1857C197.415 87.782 195.896 94.0719 192.885 99.5054C191.391 102.202 189.305 107.163 189.305 110.277C189.305 115.2 193.623 101.382 194.992 96.654C197.292 88.7108 199.118 80.7065 202.786 73.209C205.182 68.3117 207.408 64.7654 209.21 59.7968C209.987 57.6542 210.861 52.406 213.476 51.8234C219.482 50.4852 214.356 64.3635 214.95 66.4501C215.233 67.4414 223.617 60.0578 224.166 59.3744C225.783 57.3615 227.795 55.0723 228.906 52.7211C229.868 50.6835 228.108 51.4996 227.431 52.7211C225.524 56.1626 225.325 59.07 225.325 62.9651C225.325 67.5775 230.937 61.5225 232.697 60.3249C234.99 58.7648 237.494 57.122 238.806 54.622C239.327 53.6288 239.68 52.1611 238.384 53.4603C235.577 56.2756 234.294 61.6097 232.908 65.2884C230.4 71.9446 228.117 78.8156 226.272 85.6708C224.238 93.2316 226.436 100.72 221.322 107.426C219.225 110.177 212.618 114.106 211.106 108.799C209.381 102.744 210.554 94.7707 214.002 89.3671C217.467 83.9396 225.581 78.7119 230.959 75.0044C233.484 73.2637 235.979 68.8337 237.226 65.9749C238.879 62.1867 251.404 43.7544 253.972 49.8697C255.053 52.4447 254.816 57.2485 252.814 59.3744C250.738 61.5777 245.295 61.982 247.126 61.0641C254.594 57.3199 257.918 66.1208 255.183 72.1529C252.821 77.3644 250.125 82.23 247.653 87.4133C247.015 88.7507 241.621 99.1886 240.017 99.1886C237.805 99.1886 240.899 84.7616 241.439 83.717C244.48 77.8353 248.397 76.2611 253.34 72.2058C256.615 69.5192 260.514 66.359 261.819 62.173C263.347 57.2686 266.734 53.7482 268.454 48.9192C270.337 43.6332 268.225 44.4872 267.98 48.9192C267.649 54.884 264.277 60.2578 262.503 65.8165C262.436 66.0264 265.736 61.5728 267.032 59.5856C270.403 54.4154 273.354 60.017 270.824 63.0707C265.112 69.964 266.202 63.0864 268.928 66.5029C270.77 68.8113 274.618 67.9862 276.88 66.9782C277.601 66.6566 279.946 65.1755 280.303 64.5492C280.774 63.7227 281.25 60.9042 281.25 61.8562C281.25 62.4631 279.098 68.7735 280.777 68.7735C285.98 68.7735 292.062 54.8296 290.94 51.0313C290.296 48.8516 289.998 42.4953 285.99 46.0678C283.182 48.5704 283.933 51.0403 287.886 50.8201C289.419 50.7347 297.094 47.3236 293.152 51.7706C291.399 53.7474 290.729 56.6346 290.729 59.3744C290.729 62.4058 289.678 65.0772 293.362 65.0772C297.641 65.0772 300.879 64.4049 304 61.2753" stroke="#383A3A" stroke-width="3" stroke-linecap="round"/>
<path d="M324.815 14C326.262 14 318.771 41.0298 318 44" stroke="#383A3A" stroke-width="3" stroke-linecap="round"/>
<path d="M317.955 59.458C317.955 53.5595 309.459 59.4491 314.717 64.8408C319.065 69.3004 322.271 59.6095 317.955 57.3965" stroke="#383A3A" stroke-width="3" stroke-linecap="round"/>
</svg>
