<svg width="276" height="228" viewBox="0 0 276 228" fill="none" xmlns="http://www.w3.org/2000/svg">
<path d="M18.8077 86.5316C22.8869 80.4127 28.7092 73.8069 31.5672 67.0379C31.9909 66.0345 36.6737 50.8786 39.1874 53.3924C40.8955 55.1004 33.2084 76.5116 32.6305 78.2025C26.6433 95.7207 18.3001 112.719 10.39 129.418C9.44992 131.402 4.45544 142.032 2.32669 145.544C1.62184 146.707 2.2372 142.802 2.50391 141.468C4.75862 130.195 16.3183 119.306 25.5419 113.291C46.0241 99.9331 58.5173 77.4564 79.0608 64.5569C89.4923 58.0069 81.3205 59.0475 74.6305 64.5569C67.2981 70.5953 61.9894 84.2099 57.6178 92.3797C50.5255 105.634 41.46 121.701 41.1368 137.215C40.9338 146.96 51.9188 139.682 55.1368 135.975C63.9904 125.774 71.2333 113.697 77.1115 101.595C82.2605 90.994 83.8112 79.1785 86.1494 67.7468C86.9564 63.8017 89.3357 60.0621 86.5925 65C82.2877 72.7486 80.8354 81.1022 76.2254 89.8101C75.0268 92.0741 57.7657 132.608 62.757 132.608C65.1185 132.608 71.2101 126.23 73.0355 124.81C79.497 119.784 85.5474 106.849 81.8963 121.975C79.0803 133.641 97.656 112.449 99.9722 109.747C103.829 105.247 90.5395 125.24 96.1621 127.114C102.772 129.317 113.083 116.311 115.213 111.342C117.982 104.881 104.968 127.583 110.517 131.899C119.098 138.573 138.346 119.213 141.263 112.405C146.447 100.311 133.833 102.572 130.808 112.405C129.233 117.524 135.092 113.646 136.833 113.646C138.471 113.646 135.314 120.185 135.238 121.62C134.584 134.045 152.439 125.703 156.327 119.671C163.991 107.778 171.439 96.2364 178.656 84.0506C179.48 82.658 189.466 66.6621 189.466 73.7721C189.466 81.7461 194.826 73.7918 185.922 80.1519C180.753 83.8437 165.328 107.844 181.846 102.127C189.864 99.351 188.226 90.2852 181.137 100C176.236 106.716 170.548 116.777 168.377 124.81C166.881 130.346 171.79 133.376 176.706 130.215C185.237 124.731 192.985 110.84 199.124 102.924C208.286 91.1094 214.349 76.1801 224.997 65.5316C233.101 57.4282 210.146 83.1499 204.441 93.0886C202.417 96.6139 184.258 123.596 199.124 116.658C208.358 112.349 220.901 103.958 226.77 95.481C234.624 84.1361 207.398 115.212 198.858 126.051C178.055 152.455 77.725 281.421 51.7697 198.532C32.4847 136.944 106.782 65.0173 164.656 106.646C180.945 118.363 190.23 138.892 192.479 158.57C192.882 162.102 193.59 171.225 188.58 165.304C180.571 155.838 178.178 146.211 175.023 134.38C170.707 118.195 165.879 107.641 155.441 94.6835C144.393 80.9687 154.801 63.1342 165.542 52.0633C192.945 23.8173 237.707 13.1664 273.997 2" stroke="#2A2B2C" stroke-width="3" stroke-linecap="round"/>
</svg>
